<svg width="315" height="249" viewBox="0 0 315 249" fill="none" xmlns="http://www.w3.org/2000/svg">
<g clip-path="url(#clip0_0_1)">
<rect x="44" y="56" width="227" height="150" rx="17" fill="url(#paint0_linear_0_1)"/>
<path d="M126.04 161.8C118.36 161.8 114.16 156.34 113.44 145.42H97.96C96.76 148.18 95.74 150.76 94.9 153.16L92.56 160H79.96L108.31 100.6H127.66L131.44 144.34C132.04 150.64 133.54 154.72 135.94 156.58C134.2 160.06 130.9 161.8 126.04 161.8ZM100.75 138.85H113.17L112.09 115.72V113.29L105.7 127.42L100.75 138.85ZM176.388 99.97C191.088 99.97 198.438 105.16 198.438 115.54C198.438 121.24 196.608 125.8 192.948 129.22C189.348 132.64 184.398 134.35 178.098 134.35C175.158 134.35 172.548 133.51 170.268 131.83C169.188 131.11 168.288 130.27 167.568 129.31C171.948 129.31 175.278 127.99 177.558 125.35C179.898 122.65 181.068 118.69 181.068 113.47C181.068 108.25 178.488 105.64 173.328 105.64H171.168C170.808 105.64 170.478 105.67 170.178 105.73L159.828 160H140.298L151.368 101.05C157.788 100.45 162.858 100.12 166.578 100.06C170.298 100 173.568 99.97 176.388 99.97ZM197.864 160L209.294 100.6H229.094L217.484 160H197.864Z" fill="white"/>
<g filter="url(#filter0_d_0_1)">
<path d="M296.438 122.025C290.05 122.025 284.875 128.931 284.875 137.44C284.875 139.191 285.143 140.837 285.541 142.403L257.356 174.756C255.381 172.654 252.912 171.346 250.188 171.346C247.042 171.346 244.203 173.03 242.122 175.743L220.042 161.006C219.612 153.015 214.668 146.682 208.562 146.682C202.18 146.682 197 153.588 197 162.097C197 164.428 197.416 166.611 198.11 168.59L175.6 203.194C174.337 202.565 172.992 202.17 171.562 202.17C165.175 202.17 160 209.07 160 217.585C160 226.1 165.175 233 171.562 233C177.95 233 183.125 226.1 183.125 217.585C183.125 215.538 182.811 213.583 182.265 211.795L205.14 176.742C206.232 177.192 207.36 177.506 208.562 177.506C211.925 177.506 214.931 175.558 217.045 172.493L238.639 186.928C238.718 195.357 243.851 202.164 250.188 202.164C256.575 202.164 261.75 195.264 261.75 186.749C261.75 186.478 261.699 186.219 261.69 185.947L291.766 151.498C293.195 152.343 294.768 152.83 296.438 152.83C302.825 152.83 308 145.93 308 137.415C308 128.9 302.825 122 296.438 122V122.025Z" fill="url(#paint1_linear_0_1)"/>
<path d="M296.938 122.516C299.744 122.685 302.306 124.27 304.214 126.814C306.235 129.509 307.5 133.255 307.5 137.415C307.5 141.575 306.235 145.321 304.214 148.016C302.193 150.71 299.438 152.33 296.438 152.33C294.868 152.33 293.383 151.873 292.021 151.067L291.663 150.856L291.39 151.169L261.313 185.618L261.184 185.768L261.19 185.965C261.196 186.122 261.213 186.275 261.227 186.4C261.24 186.533 261.25 186.642 261.25 186.749C261.25 190.909 259.985 194.655 257.964 197.35C255.943 200.044 253.188 201.664 250.188 201.664C247.211 201.664 244.479 200.067 242.465 197.405C240.451 194.744 239.177 191.041 239.139 186.923L239.137 186.659L238.917 186.512L217.322 172.077L216.913 171.804L216.633 172.209C214.585 175.178 211.717 177.006 208.562 177.006C207.448 177.006 206.388 176.715 205.331 176.279L204.947 176.121L204.722 176.469L181.846 211.521L181.719 211.718L181.786 211.941C182.318 213.684 182.625 215.589 182.625 217.585C182.625 221.745 181.36 225.491 179.339 228.186C177.318 230.88 174.563 232.5 171.562 232.5C168.562 232.5 165.807 230.88 163.786 228.186C161.765 225.491 160.5 221.745 160.5 217.585C160.5 213.425 161.765 209.679 163.786 206.984C165.807 204.29 168.562 202.67 171.562 202.67C172.897 202.67 174.166 203.039 175.377 203.642L175.776 203.84L176.02 203.466L198.529 168.863L198.663 168.657L198.582 168.425C197.906 166.495 197.5 164.368 197.5 162.098C197.5 157.941 198.766 154.195 200.788 151.499C202.81 148.804 205.564 147.183 208.562 147.183C211.43 147.183 214.059 148.668 216.039 151.159C218.02 153.651 219.332 157.13 219.542 161.033L219.556 161.283L219.765 161.422L241.844 176.158L242.233 176.418L242.519 176.047C244.529 173.426 247.234 171.847 250.188 171.847C252.741 171.847 255.087 173.071 256.992 175.099L257.37 175.501L257.733 175.085L285.918 142.731L286.09 142.534L286.025 142.28C285.635 140.743 285.375 139.139 285.375 137.439C285.375 133.283 286.64 129.536 288.661 126.841C290.682 124.146 293.437 122.524 296.438 122.524H296.938V122.516Z" stroke="#279CEB"/>
</g>
</g>
<defs>
<filter id="filter0_d_0_1" x="156" y="122" width="156" height="119" filterUnits="userSpaceOnUse" color-interpolation-filters="sRGB">
<feFlood flood-opacity="0" result="BackgroundImageFix"/>
<feColorMatrix in="SourceAlpha" type="matrix" values="0 0 0 0 0 0 0 0 0 0 0 0 0 0 0 0 0 0 127 0" result="hardAlpha"/>
<feOffset dy="4"/>
<feGaussianBlur stdDeviation="2"/>
<feComposite in2="hardAlpha" operator="out"/>
<feColorMatrix type="matrix" values="0 0 0 0 0 0 0 0 0 0 0 0 0 0 0 0 0 0 0.25 0"/>
<feBlend mode="normal" in2="BackgroundImageFix" result="effect1_dropShadow_0_1"/>
<feBlend mode="normal" in="SourceGraphic" in2="effect1_dropShadow_0_1" result="shape"/>
</filter>
<linearGradient id="paint0_linear_0_1" x1="157.5" y1="56" x2="157.5" y2="206" gradientUnits="userSpaceOnUse">
<stop stop-color="#279CEB"/>
<stop offset="1" stop-color="#165885"/>
</linearGradient>
<linearGradient id="paint1_linear_0_1" x1="234" y1="122" x2="234" y2="233" gradientUnits="userSpaceOnUse">
<stop stop-color="#FF6A00"/>
<stop offset="1" stop-color="#994000"/>
</linearGradient>
<clipPath id="clip0_0_1">
<rect width="315" height="249" fill="white"/>
</clipPath>
</defs>
</svg>
