<svg width="24" height="24" viewBox="0 0 24 24" fill="none" xmlns="http://www.w3.org/2000/svg">
<path fill-rule="evenodd" clip-rule="evenodd" d="M263.266 3.25C261.519 4.487 242.618 27.37 221.264 54.1L182.439 102.7L144.673 83.85C109.907 66.497 106.486 65 101.602 65C97.773 65 95.35 65.626 92.898 67.25C90.473 68.855 77.521 87.404 47.683 132C24.684 166.375 4.551 196.75 2.943 199.5C-2.242 208.365 0.00400257 218.9 7.984 223.146C11.339 224.931 17.988 225 186.833 225C383.537 225 366.76 225.678 371.534 217.532L374 213.324V155.612C374 107.397 373.764 97.456 372.565 95.2C370.833 91.94 282.422 3.675 279.316 2.104C275.409 0.128996 266.806 0.743 263.266 3.25ZM341 151.244V193H193.999H46.998L77.248 147.622L107.498 102.244L145.244 121.122C185.685 141.348 187.08 141.837 194.398 138.347C196.965 137.123 207.675 124.418 235.682 89.372L273.5 42.05L307.25 75.769L341 109.489V151.244ZM7.922 280.274C6.066 281.524 3.485 284.112 2.185 286.024C0.209999 288.931 -0.111001 290.444 0.225999 295.263C0.713999 302.231 2.938 305.642 9.02 308.75L13.424 311H187H360.576L364.98 308.75C371.547 305.394 373.5 302.128 373.5 294.5C373.5 287.397 371.823 284.206 366.01 280.25L362.704 278H187H11.296L7.922 280.274Z" fill="black"/>
</svg>
