<svg width="966" height="287" viewBox="0 0 966 287" fill="none" xmlns="http://www.w3.org/2000/svg">
<rect width="965.006" height="286.423" transform="translate(0.548126 0.431759)" fill="#0F172A"/>
<path d="M204.179 130.297C203.543 128.739 202.055 127.72 200.374 127.703V127.703C174.284 127.353 155.929 101.922 163.815 77.0498L178.61 30.385C179.193 28.5486 178.447 26.5637 176.797 25.5629C175.144 24.5643 173.043 24.8187 171.682 26.1845L45.8337 152.475C44.6467 153.664 44.2888 155.438 44.9237 156.99C45.5515 158.534 47.039 159.556 48.7279 159.589V159.589C74.8193 159.938 93.1753 185.37 85.2892 210.243L70.4959 256.902C69.9116 258.744 70.6578 260.729 72.3081 261.727C72.7138 261.972 73.1568 262.146 73.6247 262.243C75.0061 262.529 76.4229 262.101 77.4207 261.105L203.269 134.814C204.456 133.625 204.811 131.851 204.179 130.297Z" fill="#38BDF8"/>
<path d="M233.911 205.643V82.007H285.467C294.723 82.007 302.471 83.315 308.709 85.931C314.987 88.547 319.696 92.2094 322.835 96.9182C326.015 101.627 327.604 107.08 327.604 113.278C327.604 117.987 326.618 122.193 324.646 125.895C322.674 129.558 319.958 132.596 316.496 135.011C313.035 137.426 309.031 139.116 304.483 140.082V141.29C309.474 141.531 314.082 142.879 318.308 145.334C322.574 147.789 325.995 151.21 328.57 155.597C331.146 159.944 332.434 165.095 332.434 171.052C332.434 177.692 330.744 183.629 327.363 188.861C323.982 194.052 319.092 198.158 312.693 201.176C306.294 204.154 298.527 205.643 289.391 205.643H233.911ZM263.794 181.556H282.267C288.747 181.556 293.516 180.328 296.575 177.873C299.674 175.418 301.223 171.997 301.223 167.611C301.223 164.431 300.478 161.694 298.989 159.4C297.5 157.066 295.387 155.275 292.651 154.028C289.914 152.74 286.634 152.096 282.81 152.096H263.794V181.556ZM263.794 132.838H280.335C283.595 132.838 286.493 132.295 289.028 131.208C291.564 130.121 293.536 128.552 294.945 126.499C296.394 124.447 297.118 121.971 297.118 119.074C297.118 114.928 295.649 111.668 292.711 109.294C289.773 106.919 285.809 105.732 280.818 105.732H263.794V132.838ZM376.322 82.007V205.643H346.802V82.007H376.322ZM421.252 207.213C415.336 207.213 410.084 206.227 405.496 204.255C400.948 202.243 397.346 199.224 394.69 195.199C392.074 191.135 390.766 186.043 390.766 179.926C390.766 174.774 391.671 170.428 393.482 166.886C395.294 163.345 397.789 160.467 400.968 158.253C404.148 156.04 407.81 154.37 411.955 153.243C416.101 152.076 420.528 151.291 425.237 150.888C430.509 150.405 434.755 149.902 437.975 149.379C441.194 148.816 443.529 148.031 444.977 147.025C446.467 145.978 447.211 144.509 447.211 142.618V142.316C447.211 139.217 446.145 136.822 444.012 135.132C441.879 133.442 439.001 132.596 435.379 132.596C431.475 132.596 428.336 133.442 425.961 135.132C423.587 136.822 422.077 139.157 421.433 142.135L394.207 141.169C395.012 135.534 397.084 130.504 400.425 126.077C403.806 121.609 408.434 118.108 414.31 115.572C420.226 112.997 427.33 111.709 435.62 111.709C441.536 111.709 446.99 112.413 451.98 113.822C456.971 115.19 461.317 117.202 465.02 119.859C468.723 122.475 471.58 125.694 473.593 129.518C475.645 133.341 476.671 137.708 476.671 142.618V205.643H448.901V192.724H448.177C446.527 195.863 444.414 198.52 441.838 200.693C439.303 202.866 436.304 204.496 432.843 205.583C429.422 206.67 425.559 207.213 421.252 207.213ZM430.368 187.895C433.548 187.895 436.405 187.251 438.941 185.963C441.516 184.675 443.569 182.904 445.098 180.65C446.628 178.356 447.392 175.7 447.392 172.682V163.868C446.547 164.31 445.521 164.713 444.313 165.075C443.146 165.437 441.858 165.779 440.45 166.101C439.041 166.423 437.592 166.705 436.103 166.947C434.614 167.188 433.185 167.409 431.817 167.611C429.04 168.053 426.665 168.738 424.693 169.663C422.762 170.589 421.272 171.796 420.226 173.285C419.22 174.734 418.717 176.465 418.717 178.477C418.717 181.536 419.803 183.87 421.977 185.48C424.19 187.09 426.987 187.895 430.368 187.895ZM575.677 141.229L548.571 141.954C548.29 140.022 547.525 138.311 546.277 136.822C545.03 135.293 543.4 134.106 541.387 133.261C539.415 132.375 537.121 131.932 534.505 131.932C531.084 131.932 528.166 132.617 525.752 133.985C523.377 135.353 522.21 137.205 522.25 139.539C522.21 141.35 522.934 142.92 524.424 144.248C525.953 145.576 528.669 146.642 532.573 147.447L550.443 150.828C559.699 152.599 566.581 155.537 571.089 159.642C575.637 163.747 577.931 169.18 577.971 175.942C577.931 182.301 576.039 187.834 572.296 192.543C568.594 197.252 563.523 200.914 557.083 203.53C550.644 206.106 543.279 207.394 534.988 207.394C521.747 207.394 511.303 204.677 503.656 199.244C496.05 193.771 491.703 186.446 490.617 177.27L519.775 176.545C520.419 179.926 522.089 182.502 524.786 184.273C527.482 186.043 530.923 186.929 535.109 186.929C538.892 186.929 541.971 186.225 544.345 184.816C546.72 183.407 547.927 181.536 547.968 179.202C547.927 177.109 547.002 175.439 545.191 174.191C543.379 172.903 540.542 171.897 536.678 171.172L520.5 168.094C511.203 166.403 504.28 163.284 499.732 158.736C495.185 154.148 492.931 148.313 492.971 141.229C492.931 135.031 494.581 129.739 497.921 125.352C501.262 120.925 506.011 117.544 512.169 115.21C518.326 112.876 525.591 111.709 533.962 111.709C546.519 111.709 556.419 114.345 563.664 119.617C570.908 124.849 574.912 132.053 575.677 141.229ZM644.845 112.916V134.649H586.347V112.916H644.845ZM598.602 90.7001H628.123V176.485C628.123 178.296 628.405 179.765 628.968 180.892C629.572 181.979 630.437 182.763 631.564 183.246C632.691 183.689 634.039 183.91 635.609 183.91C636.736 183.91 637.923 183.81 639.17 183.609C640.458 183.367 641.424 183.166 642.068 183.005L646.536 204.315C645.127 204.718 643.135 205.221 640.559 205.824C638.023 206.428 634.985 206.81 631.443 206.971C624.521 207.293 618.585 206.488 613.634 204.557C608.724 202.585 604.961 199.526 602.345 195.381C599.769 191.235 598.522 186.023 598.602 179.745V90.7001ZM686.651 205.643H654.534L696.25 82.007H736.033L777.748 205.643H745.632L716.594 113.158H715.628L686.651 205.643ZM682.365 156.986H749.495V179.685H682.365V156.986ZM791.06 205.643V82.007H842.132C851.389 82.007 859.378 83.818 866.099 87.4402C872.86 91.0221 878.072 96.0328 881.734 102.472C885.397 108.871 887.228 116.317 887.228 124.809C887.228 133.341 885.357 140.807 881.614 147.206C877.911 153.565 872.619 158.495 865.737 161.996C858.854 165.498 850.684 167.248 841.227 167.248H809.714V143.704H835.673C840.18 143.704 843.943 142.92 846.962 141.35C850.02 139.78 852.335 137.587 853.904 134.77C855.474 131.912 856.259 128.592 856.259 124.809C856.259 120.985 855.474 117.685 853.904 114.908C852.335 112.091 850.02 109.918 846.962 108.388C843.903 106.859 840.14 106.094 835.673 106.094H820.943V205.643H791.06ZM931.841 82.007V205.643H901.958V82.007H931.841Z" fill="#38BDF8"/>
</svg>
