<svg width="224" height="287" viewBox="0 0 224 287" fill="none" xmlns="http://www.w3.org/2000/svg">
<rect width="224.006" height="286.423" fill="#0F172A"/>
<path d="M191.631 129.865C190.995 128.308 189.507 127.288 187.826 127.271V127.271C161.736 126.921 143.381 101.49 151.267 76.618L166.062 29.9532C166.645 28.1168 165.899 26.132 164.249 25.1311C162.596 24.1325 160.495 24.387 159.134 25.7527L33.2855 152.043C32.0986 153.233 31.7407 155.007 32.3756 156.558C33.0034 158.102 34.4909 159.124 36.1798 159.158V159.158C62.2712 159.507 80.6272 184.938 72.741 209.812L57.9478 256.471C57.3635 258.312 58.1097 260.297 59.7599 261.295C60.1657 261.54 60.6087 261.715 61.0765 261.811C62.458 262.097 63.8748 261.669 64.8726 260.673L190.721 134.383C191.908 133.193 192.263 131.419 191.631 129.865Z" fill="#38BDF8"/>
</svg>
