<svg width="889" height="239" viewBox="0 0 889 239" fill="none" xmlns="http://www.w3.org/2000/svg">
<path d="M190.357 182V58.3636H241.913C251.169 58.3636 258.917 59.6716 265.155 62.2876C271.433 64.9036 276.142 68.566 279.281 73.2749C282.461 77.9837 284.05 83.437 284.05 89.6349C284.05 94.3438 283.064 98.5495 281.092 102.252C279.12 105.915 276.404 108.953 272.942 111.368C269.481 113.783 265.477 115.473 260.929 116.439V117.646C265.92 117.888 270.528 119.236 274.754 121.691C279.02 124.146 282.441 127.567 285.016 131.954C287.592 136.3 288.88 141.452 288.88 147.408C288.88 154.049 287.19 159.985 283.809 165.217C280.428 170.409 275.538 174.514 269.139 177.533C262.74 180.511 254.973 182 245.837 182H190.357ZM220.24 157.913H238.713C245.193 157.913 249.962 156.685 253.021 154.23C256.12 151.775 257.669 148.354 257.669 143.967C257.669 140.788 256.924 138.051 255.435 135.757C253.946 133.423 251.833 131.632 249.097 130.384C246.36 129.096 243.08 128.452 239.256 128.452H220.24V157.913ZM220.24 109.195H236.781C240.041 109.195 242.939 108.651 245.474 107.565C248.01 106.478 249.982 104.908 251.391 102.856C252.839 100.803 253.564 98.3281 253.564 95.4304C253.564 91.285 252.095 88.0251 249.157 85.6506C246.219 83.276 242.255 82.0888 237.264 82.0888H220.24V109.195ZM332.768 58.3636V182H303.248V58.3636H332.768ZM377.698 183.57C371.782 183.57 366.53 182.584 361.942 180.612C357.394 178.599 353.792 175.581 351.136 171.556C348.52 167.491 347.212 162.4 347.212 156.283C347.212 151.131 348.117 146.785 349.928 143.243C351.74 139.701 354.235 136.824 357.414 134.61C360.594 132.397 364.256 130.726 368.401 129.599C372.547 128.432 376.974 127.647 381.683 127.245C386.955 126.762 391.201 126.259 394.421 125.736C397.64 125.172 399.975 124.388 401.423 123.381C402.913 122.335 403.657 120.866 403.657 118.974V118.673C403.657 115.574 402.591 113.179 400.458 111.489C398.325 109.798 395.447 108.953 391.825 108.953C387.921 108.953 384.782 109.798 382.407 111.489C380.033 113.179 378.523 115.513 377.879 118.491L350.653 117.526C351.458 111.891 353.53 106.86 356.871 102.433C360.252 97.9659 364.88 94.4645 370.756 91.929C376.672 89.3532 383.776 88.0653 392.066 88.0653C397.982 88.0653 403.436 88.7696 408.426 90.1783C413.417 91.5466 417.763 93.5589 421.466 96.2152C425.169 98.8312 428.026 102.051 430.039 105.874C432.091 109.698 433.117 114.064 433.117 118.974V182H405.347V169.081H404.623C402.973 172.22 400.86 174.876 398.284 177.05C395.749 179.223 392.75 180.853 389.289 181.94C385.868 183.026 382.005 183.57 377.698 183.57ZM386.814 164.251C389.994 164.251 392.851 163.607 395.387 162.32C397.962 161.032 400.015 159.261 401.544 157.007C403.074 154.713 403.838 152.057 403.838 149.038V140.224C402.993 140.667 401.967 141.07 400.759 141.432C399.592 141.794 398.304 142.136 396.896 142.458C395.487 142.78 394.038 143.062 392.549 143.303C391.06 143.545 389.631 143.766 388.263 143.967C385.486 144.41 383.111 145.094 381.139 146.02C379.208 146.946 377.718 148.153 376.672 149.642C375.666 151.091 375.163 152.821 375.163 154.834C375.163 157.893 376.249 160.227 378.423 161.837C380.636 163.446 383.433 164.251 386.814 164.251ZM532.123 117.586L505.017 118.31C504.736 116.379 503.971 114.668 502.723 113.179C501.476 111.65 499.846 110.462 497.833 109.617C495.861 108.732 493.567 108.289 490.951 108.289C487.53 108.289 484.612 108.973 482.198 110.342C479.823 111.71 478.656 113.561 478.696 115.896C478.656 117.707 479.38 119.276 480.869 120.604C482.399 121.933 485.115 122.999 489.019 123.804L506.889 127.185C516.145 128.955 523.027 131.893 527.535 135.999C532.083 140.104 534.377 145.537 534.417 152.298C534.377 158.657 532.485 164.191 528.742 168.9C525.04 173.609 519.969 177.271 513.529 179.887C507.09 182.463 499.725 183.751 491.434 183.751C478.193 183.751 467.749 181.034 460.102 175.601C452.496 170.127 448.149 162.803 447.063 153.626L476.221 152.902C476.865 156.283 478.535 158.858 481.232 160.629C483.928 162.4 487.369 163.286 491.555 163.286C495.338 163.286 498.417 162.581 500.791 161.173C503.166 159.764 504.373 157.893 504.414 155.558C504.373 153.465 503.448 151.795 501.637 150.548C499.825 149.26 496.988 148.254 493.124 147.529L476.945 144.45C467.649 142.76 460.726 139.641 456.178 135.093C451.631 130.505 449.377 124.669 449.417 117.586C449.377 111.388 451.027 106.096 454.367 101.709C457.708 97.2817 462.457 93.901 468.615 91.5668C474.772 89.2325 482.037 88.0653 490.408 88.0653C502.965 88.0653 512.865 90.7015 520.11 95.9737C527.354 101.206 531.358 108.41 532.123 117.586ZM601.291 89.2727V111.006H542.793V89.2727H601.291ZM555.048 67.0568H584.569V152.842C584.569 154.653 584.851 156.122 585.414 157.249C586.018 158.335 586.883 159.12 588.01 159.603C589.137 160.046 590.485 160.267 592.055 160.267C593.182 160.267 594.369 160.166 595.616 159.965C596.904 159.724 597.87 159.522 598.514 159.362L602.982 180.672C601.573 181.074 599.581 181.577 597.005 182.181C594.469 182.785 591.431 183.167 587.889 183.328C580.967 183.65 575.031 182.845 570.08 180.913C565.17 178.941 561.407 175.883 558.791 171.737C556.215 167.592 554.968 162.38 555.048 156.102V67.0568ZM643.097 182H610.98L652.696 58.3636H692.479L734.194 182H702.078L673.04 89.5142H672.074L643.097 182ZM638.811 133.342H705.941V156.041H638.811V133.342ZM747.506 182V58.3636H798.578C807.835 58.3636 815.824 60.1747 822.545 63.7969C829.306 67.3788 834.518 72.3894 838.18 78.8288C841.843 85.228 843.674 92.6735 843.674 101.165C843.674 109.698 841.803 117.163 838.06 123.562C834.357 129.921 829.065 134.852 822.183 138.353C815.3 141.854 807.13 143.605 797.673 143.605H766.16V120.061H792.119C796.626 120.061 800.389 119.276 803.408 117.707C806.466 116.137 808.781 113.944 810.35 111.126C811.92 108.269 812.705 104.949 812.705 101.165C812.705 97.3421 811.92 94.0419 810.35 91.2649C808.781 88.4477 806.466 86.2744 803.408 84.745C800.349 83.2157 796.586 82.451 792.119 82.451H777.388V182H747.506ZM888.287 58.3636V182H858.404V58.3636H888.287Z" fill="#38BDF8"/>
<path d="M160.179 106.297C159.543 104.739 158.055 103.72 156.374 103.703V103.703C130.284 103.353 111.929 77.9222 119.815 53.0498L134.61 6.38496C135.193 4.54855 134.447 2.56371 132.797 1.56289C131.144 0.564257 129.043 0.818717 127.682 2.18449L1.83366 128.475C0.646745 129.664 0.288814 131.438 0.923725 132.99C1.55152 134.534 3.03904 135.556 4.72794 135.589V135.589C30.8193 135.938 49.1753 161.37 41.2892 186.243L26.4959 232.902C25.9116 234.744 26.6578 236.729 28.3081 237.727C28.7138 237.972 29.1568 238.146 29.6247 238.243C31.0061 238.529 32.4229 238.101 33.4207 237.105L159.269 110.814C160.456 109.625 160.811 107.851 160.179 106.297Z" fill="#38BDF8"/>
</svg>
