<svg width="160" height="238" viewBox="0 0 160 238" fill="none" xmlns="http://www.w3.org/2000/svg">
<path d="M159.631 105.865C158.995 104.308 157.507 103.288 155.826 103.271V103.271C129.736 102.921 111.381 77.4905 119.267 52.618L134.062 5.9532C134.645 4.1168 133.899 2.13196 132.249 1.13114C130.596 0.132498 128.495 0.386958 127.134 1.75273L1.28554 128.043C0.0986261 129.233 -0.259305 131.007 0.375606 132.558C1.0034 134.102 2.49092 135.124 4.17982 135.158V135.158C30.2712 135.507 48.6272 160.938 40.741 185.812L25.9478 232.471C25.3635 234.312 26.1097 236.297 27.7599 237.295C28.1657 237.54 28.6087 237.715 29.0765 237.811C30.458 238.097 31.8748 237.669 32.8726 236.673L158.721 110.383C159.908 109.193 160.263 107.419 159.631 105.865Z" fill="#38BDF8"/>
</svg>
